<?xml version="1.0" encoding="UTF-8" standalone="no"?>
<!-- Created with Inkscape (http://www.inkscape.org/) -->

<svg
   width="16"
   height="16"
   viewBox="0 0 16 16"
   version="1.1"
   id="svg5"
   xmlns="http://www.w3.org/2000/svg"
   xmlns:svg="http://www.w3.org/2000/svg">
  <defs
     id="defs2" />
  <g
     id="layer1"
     transform="translate(-0.5117675,-0.77635086)">
    <path
       style="fill:#bc5fd3;stroke:none;stroke-width:0.132292"
       d="M 1.9036841,3.2498963 5.6513023,0.77635083 5.686637,9.926845 c 0,1.40423 0.6440185,1.393841 0.6440185,1.393841 h 1.4458044 v 0.786942 H 0.85852602 V 11.320686 H 2.3629581 c 0,0 0.7949184,0.01811 0.7949184,-1.349999 V 3.7032081 c 0,0 0.031719,-0.2869681 -0.1416489,-0.2869681 -0.1733682,0 -0.7220559,0.4480987 -0.7220559,0.4480987 z"
       id="path245" />
    <path
       style="display:inline;fill:#bc5fd3;fill-opacity:1;stroke:none;stroke-width:0.132292"
       d="m 6.3862857,7.6436159 h 4.9491733 l -0.04419,0.7281198 c -0.997886,0 -0.265223,0.9233527 -0.265223,0.9233527 l 4.076431,6.1594636 c 0,0 0.666174,1.099694 1.206033,1.101309 v 0.574043 h -4.77378 v -0.620859 c 0.963086,0 0.171687,-1.054493 0.171687,-1.054493 L 7.623789,9.2950884 c 0,0 -0.6186025,-0.9233527 -1.2816975,-0.9233527 z"
       id="path1949"
       transform="translate(-0.39774753,-0.35355344)" />
    <path
       style="display:inline;fill:#bc5fd3;fill-opacity:1;stroke:none;stroke-width:0.132292"
       d="m 13.043009,8.8591689 c 0,0 0.385613,-0.4874332 -0.242716,-0.4874332 H 12.357517 V 7.6436159 h 4.078581 v 0.7281198 c -1.703471,0 -2.086087,0.711326 -2.086087,0.711326 L 9.7721921,15.89056 c 0,0 -0.4062175,0.618485 0.1510766,0.618485 h 0.5617033 l 0.04419,0.620859 H 6.3862855 l -0.044194,-0.620859 c 1.5254937,0 2.1265619,-0.845074 2.1265619,-0.845074 z"
       id="path1532"
       transform="translate(-0.39774753,-0.35355344)" />
  </g>
</svg>
